<svg xmlns="http://www.w3.org/2000/svg" width="640" height="420" viewBox="0 0 640 420" role="img" aria-label="Books illustration">
  <defs>
    <linearGradient id="g" x1="0" y1="0" x2="1" y2="1">
      <stop offset="0" stop-color="#1F3B2C"/>
      <stop offset="1" stop-color="#6B4E2E"/>
    </linearGradient>
  </defs>
  <rect x="0" y="0" width="640" height="420" rx="24" fill="#F6F3EA"/>
  <g opacity="0.08" fill="#1F3B2C">
    <circle cx="90" cy="70" r="50"/>
    <circle cx="560" cy="90" r="60"/>
    <circle cx="520" cy="360" r="70"/>
  </g>
  <g transform="translate(110,90)">
    <rect x="0" y="20" width="120" height="240" rx="14" fill="#1F3B2C" opacity="0.92"/>
    <rect x="22" y="44" width="76" height="10" rx="5" fill="#EFE7D6" opacity="0.9"/>
    <rect x="22" y="68" width="62" height="10" rx="5" fill="#EFE7D6" opacity="0.7"/>

    <rect x="140" y="0" width="130" height="260" rx="14" fill="#6B4E2E" opacity="0.92"/>
    <rect x="165" y="28" width="82" height="10" rx="5" fill="#EFE7D6" opacity="0.9"/>
    <rect x="165" y="52" width="70" height="10" rx="5" fill="#EFE7D6" opacity="0.7"/>

    <rect x="290" y="38" width="140" height="222" rx="14" fill="url(#g)" opacity="0.92"/>
    <rect x="320" y="62" width="86" height="10" rx="5" fill="#EFE7D6" opacity="0.9"/>
    <rect x="320" y="86" width="66" height="10" rx="5" fill="#EFE7D6" opacity="0.7"/>

    <path d="M0,265 C110,320 240,320 430,270" fill="none" stroke="#1F3B2C" stroke-width="10" opacity="0.25"/>
  </g>
</svg>
